%TF.GenerationSoftware,KiCad,Pcbnew,7.0.1-0*%
%TF.CreationDate,2023-05-03T10:27:24+09:00*%
%TF.ProjectId,centerjoint-0cm-wSwitch,63656e74-6572-46a6-9f69-6e742d30636d,rev?*%
%TF.SameCoordinates,Original*%
%TF.FileFunction,Drillmap*%
%TF.FilePolarity,Positive*%
%FSLAX45Y45*%
G04 Gerber Fmt 4.5, Leading zero omitted, Abs format (unit mm)*
G04 Created by KiCad (PCBNEW 7.0.1-0) date 2023-05-03 10:27:24*
%MOMM*%
%LPD*%
G01*
G04 APERTURE LIST*
%ADD10C,0.150000*%
%ADD11C,0.100000*%
%ADD12C,0.200000*%
%ADD13C,0.195000*%
G04 APERTURE END LIST*
D10*
X5609191Y-2082009D02*
X8553944Y-1429173D01*
D11*
X4642662Y-6266658D02*
X6536906Y-6266658D01*
D10*
X2625625Y-1429165D02*
G75*
G03*
X2530950Y-1489487I-17185J-77485D01*
G01*
X1637597Y-5519150D02*
G75*
G03*
X1697909Y-5613822I77493J-17180D01*
G01*
X2625623Y-1429174D02*
X5570376Y-2082010D01*
X9481660Y-5613827D02*
G75*
G03*
X9541972Y-5519149I-17170J77487D01*
G01*
X1637595Y-5519149D02*
X2530950Y-1489487D01*
X8648624Y-1489485D02*
G75*
G03*
X8553944Y-1429173I-77484J-17165D01*
G01*
X8648618Y-1489487D02*
X9541972Y-5519149D01*
D11*
X5570376Y-2082010D02*
X5609191Y-2082009D01*
D10*
X9481659Y-5613822D02*
X6536906Y-6266658D01*
X4642662Y-6266658D02*
X1697909Y-5613822D01*
D12*
D13*
X1806892Y-5318189D02*
X2001892Y-5513189D01*
X2001892Y-5318189D02*
X1806892Y-5513189D01*
X2442547Y-2450933D02*
X2637547Y-2645933D01*
X2637547Y-2450933D02*
X2442547Y-2645933D01*
X4441671Y-5902305D02*
X4636671Y-6097305D01*
X4636671Y-5902305D02*
X4441671Y-6097305D01*
X4552243Y-5454516D02*
X4747243Y-5649516D01*
X4747243Y-5454516D02*
X4552243Y-5649516D01*
X4861435Y-4059628D02*
X5056435Y-4254628D01*
X5056435Y-4059628D02*
X4861435Y-4254628D01*
X4957067Y-3577500D02*
X5152067Y-3772500D01*
X5152067Y-3577500D02*
X4957067Y-3772500D01*
X6027500Y-3562500D02*
X6222500Y-3757500D01*
X6222500Y-3562500D02*
X6027500Y-3757500D01*
X6124500Y-4057500D02*
X6319500Y-4252500D01*
X6319500Y-4057500D02*
X6124500Y-4252500D01*
X6431500Y-5450500D02*
X6626500Y-5645500D01*
X6626500Y-5450500D02*
X6431500Y-5645500D01*
X6543500Y-5902500D02*
X6738500Y-6097500D01*
X6738500Y-5902500D02*
X6543500Y-6097500D01*
X8538500Y-2447500D02*
X8733500Y-2642500D01*
X8733500Y-2447500D02*
X8538500Y-2642500D01*
X9179500Y-5317500D02*
X9374500Y-5512500D01*
X9374500Y-5317500D02*
X9179500Y-5512500D01*
D12*
X1875835Y-6586682D02*
X1875835Y-6386682D01*
X1875835Y-6386682D02*
X1923454Y-6386682D01*
X1923454Y-6386682D02*
X1952025Y-6396206D01*
X1952025Y-6396206D02*
X1971073Y-6415254D01*
X1971073Y-6415254D02*
X1980597Y-6434301D01*
X1980597Y-6434301D02*
X1990120Y-6472396D01*
X1990120Y-6472396D02*
X1990120Y-6500968D01*
X1990120Y-6500968D02*
X1980597Y-6539063D01*
X1980597Y-6539063D02*
X1971073Y-6558111D01*
X1971073Y-6558111D02*
X1952025Y-6577158D01*
X1952025Y-6577158D02*
X1923454Y-6586682D01*
X1923454Y-6586682D02*
X1875835Y-6586682D01*
X2075835Y-6586682D02*
X2075835Y-6453349D01*
X2075835Y-6491444D02*
X2085359Y-6472396D01*
X2085359Y-6472396D02*
X2094882Y-6462873D01*
X2094882Y-6462873D02*
X2113930Y-6453349D01*
X2113930Y-6453349D02*
X2132978Y-6453349D01*
X2199644Y-6586682D02*
X2199644Y-6453349D01*
X2199644Y-6386682D02*
X2190121Y-6396206D01*
X2190121Y-6396206D02*
X2199644Y-6405730D01*
X2199644Y-6405730D02*
X2209168Y-6396206D01*
X2209168Y-6396206D02*
X2199644Y-6386682D01*
X2199644Y-6386682D02*
X2199644Y-6405730D01*
X2323454Y-6586682D02*
X2304406Y-6577158D01*
X2304406Y-6577158D02*
X2294882Y-6558111D01*
X2294882Y-6558111D02*
X2294882Y-6386682D01*
X2428216Y-6586682D02*
X2409168Y-6577158D01*
X2409168Y-6577158D02*
X2399644Y-6558111D01*
X2399644Y-6558111D02*
X2399644Y-6386682D01*
X2656787Y-6586682D02*
X2656787Y-6386682D01*
X2656787Y-6386682D02*
X2723454Y-6529539D01*
X2723454Y-6529539D02*
X2790121Y-6386682D01*
X2790121Y-6386682D02*
X2790121Y-6586682D01*
X2971073Y-6586682D02*
X2971073Y-6481920D01*
X2971073Y-6481920D02*
X2961549Y-6462873D01*
X2961549Y-6462873D02*
X2942501Y-6453349D01*
X2942501Y-6453349D02*
X2904406Y-6453349D01*
X2904406Y-6453349D02*
X2885359Y-6462873D01*
X2971073Y-6577158D02*
X2952025Y-6586682D01*
X2952025Y-6586682D02*
X2904406Y-6586682D01*
X2904406Y-6586682D02*
X2885359Y-6577158D01*
X2885359Y-6577158D02*
X2875835Y-6558111D01*
X2875835Y-6558111D02*
X2875835Y-6539063D01*
X2875835Y-6539063D02*
X2885359Y-6520016D01*
X2885359Y-6520016D02*
X2904406Y-6510492D01*
X2904406Y-6510492D02*
X2952025Y-6510492D01*
X2952025Y-6510492D02*
X2971073Y-6500968D01*
X3066311Y-6453349D02*
X3066311Y-6653349D01*
X3066311Y-6462873D02*
X3085359Y-6453349D01*
X3085359Y-6453349D02*
X3123454Y-6453349D01*
X3123454Y-6453349D02*
X3142501Y-6462873D01*
X3142501Y-6462873D02*
X3152025Y-6472396D01*
X3152025Y-6472396D02*
X3161549Y-6491444D01*
X3161549Y-6491444D02*
X3161549Y-6548587D01*
X3161549Y-6548587D02*
X3152025Y-6567635D01*
X3152025Y-6567635D02*
X3142501Y-6577158D01*
X3142501Y-6577158D02*
X3123454Y-6586682D01*
X3123454Y-6586682D02*
X3085359Y-6586682D01*
X3085359Y-6586682D02*
X3066311Y-6577158D01*
X3247263Y-6567635D02*
X3256787Y-6577158D01*
X3256787Y-6577158D02*
X3247263Y-6586682D01*
X3247263Y-6586682D02*
X3237740Y-6577158D01*
X3237740Y-6577158D02*
X3247263Y-6567635D01*
X3247263Y-6567635D02*
X3247263Y-6586682D01*
X3247263Y-6462873D02*
X3256787Y-6472396D01*
X3256787Y-6472396D02*
X3247263Y-6481920D01*
X3247263Y-6481920D02*
X3237740Y-6472396D01*
X3237740Y-6472396D02*
X3247263Y-6462873D01*
X3247263Y-6462873D02*
X3247263Y-6481920D01*
D13*
X1433216Y-6816658D02*
X1628216Y-7011658D01*
X1628216Y-6816658D02*
X1433216Y-7011658D01*
D12*
X1980597Y-7006682D02*
X1866311Y-7006682D01*
X1923454Y-7006682D02*
X1923454Y-6806682D01*
X1923454Y-6806682D02*
X1904406Y-6835254D01*
X1904406Y-6835254D02*
X1885359Y-6854301D01*
X1885359Y-6854301D02*
X1866311Y-6863825D01*
X2066311Y-6987635D02*
X2075835Y-6997158D01*
X2075835Y-6997158D02*
X2066311Y-7006682D01*
X2066311Y-7006682D02*
X2056787Y-6997158D01*
X2056787Y-6997158D02*
X2066311Y-6987635D01*
X2066311Y-6987635D02*
X2066311Y-7006682D01*
X2171073Y-7006682D02*
X2209168Y-7006682D01*
X2209168Y-7006682D02*
X2228216Y-6997158D01*
X2228216Y-6997158D02*
X2237740Y-6987635D01*
X2237740Y-6987635D02*
X2256787Y-6959063D01*
X2256787Y-6959063D02*
X2266311Y-6920968D01*
X2266311Y-6920968D02*
X2266311Y-6844777D01*
X2266311Y-6844777D02*
X2256787Y-6825730D01*
X2256787Y-6825730D02*
X2247263Y-6816206D01*
X2247263Y-6816206D02*
X2228216Y-6806682D01*
X2228216Y-6806682D02*
X2190121Y-6806682D01*
X2190121Y-6806682D02*
X2171073Y-6816206D01*
X2171073Y-6816206D02*
X2161549Y-6825730D01*
X2161549Y-6825730D02*
X2152025Y-6844777D01*
X2152025Y-6844777D02*
X2152025Y-6892396D01*
X2152025Y-6892396D02*
X2161549Y-6911444D01*
X2161549Y-6911444D02*
X2171073Y-6920968D01*
X2171073Y-6920968D02*
X2190121Y-6930492D01*
X2190121Y-6930492D02*
X2228216Y-6930492D01*
X2228216Y-6930492D02*
X2247263Y-6920968D01*
X2247263Y-6920968D02*
X2256787Y-6911444D01*
X2256787Y-6911444D02*
X2266311Y-6892396D01*
X2447263Y-6806682D02*
X2352025Y-6806682D01*
X2352025Y-6806682D02*
X2342502Y-6901920D01*
X2342502Y-6901920D02*
X2352025Y-6892396D01*
X2352025Y-6892396D02*
X2371073Y-6882873D01*
X2371073Y-6882873D02*
X2418692Y-6882873D01*
X2418692Y-6882873D02*
X2437740Y-6892396D01*
X2437740Y-6892396D02*
X2447263Y-6901920D01*
X2447263Y-6901920D02*
X2456787Y-6920968D01*
X2456787Y-6920968D02*
X2456787Y-6968587D01*
X2456787Y-6968587D02*
X2447263Y-6987635D01*
X2447263Y-6987635D02*
X2437740Y-6997158D01*
X2437740Y-6997158D02*
X2418692Y-7006682D01*
X2418692Y-7006682D02*
X2371073Y-7006682D01*
X2371073Y-7006682D02*
X2352025Y-6997158D01*
X2352025Y-6997158D02*
X2342502Y-6987635D01*
X2580597Y-6806682D02*
X2599644Y-6806682D01*
X2599644Y-6806682D02*
X2618692Y-6816206D01*
X2618692Y-6816206D02*
X2628216Y-6825730D01*
X2628216Y-6825730D02*
X2637740Y-6844777D01*
X2637740Y-6844777D02*
X2647263Y-6882873D01*
X2647263Y-6882873D02*
X2647263Y-6930492D01*
X2647263Y-6930492D02*
X2637740Y-6968587D01*
X2637740Y-6968587D02*
X2628216Y-6987635D01*
X2628216Y-6987635D02*
X2618692Y-6997158D01*
X2618692Y-6997158D02*
X2599644Y-7006682D01*
X2599644Y-7006682D02*
X2580597Y-7006682D01*
X2580597Y-7006682D02*
X2561549Y-6997158D01*
X2561549Y-6997158D02*
X2552025Y-6987635D01*
X2552025Y-6987635D02*
X2542502Y-6968587D01*
X2542502Y-6968587D02*
X2532978Y-6930492D01*
X2532978Y-6930492D02*
X2532978Y-6882873D01*
X2532978Y-6882873D02*
X2542502Y-6844777D01*
X2542502Y-6844777D02*
X2552025Y-6825730D01*
X2552025Y-6825730D02*
X2561549Y-6816206D01*
X2561549Y-6816206D02*
X2580597Y-6806682D01*
X2732978Y-7006682D02*
X2732978Y-6873349D01*
X2732978Y-6892396D02*
X2742502Y-6882873D01*
X2742502Y-6882873D02*
X2761549Y-6873349D01*
X2761549Y-6873349D02*
X2790121Y-6873349D01*
X2790121Y-6873349D02*
X2809168Y-6882873D01*
X2809168Y-6882873D02*
X2818692Y-6901920D01*
X2818692Y-6901920D02*
X2818692Y-7006682D01*
X2818692Y-6901920D02*
X2828216Y-6882873D01*
X2828216Y-6882873D02*
X2847263Y-6873349D01*
X2847263Y-6873349D02*
X2875835Y-6873349D01*
X2875835Y-6873349D02*
X2894882Y-6882873D01*
X2894882Y-6882873D02*
X2904406Y-6901920D01*
X2904406Y-6901920D02*
X2904406Y-7006682D01*
X2999644Y-7006682D02*
X2999644Y-6873349D01*
X2999644Y-6892396D02*
X3009168Y-6882873D01*
X3009168Y-6882873D02*
X3028216Y-6873349D01*
X3028216Y-6873349D02*
X3056787Y-6873349D01*
X3056787Y-6873349D02*
X3075835Y-6882873D01*
X3075835Y-6882873D02*
X3085359Y-6901920D01*
X3085359Y-6901920D02*
X3085359Y-7006682D01*
X3085359Y-6901920D02*
X3094882Y-6882873D01*
X3094882Y-6882873D02*
X3113930Y-6873349D01*
X3113930Y-6873349D02*
X3142501Y-6873349D01*
X3142501Y-6873349D02*
X3161549Y-6882873D01*
X3161549Y-6882873D02*
X3171073Y-6901920D01*
X3171073Y-6901920D02*
X3171073Y-7006682D01*
X3561549Y-6797158D02*
X3390121Y-7054301D01*
X3818692Y-6806682D02*
X3837740Y-6806682D01*
X3837740Y-6806682D02*
X3856787Y-6816206D01*
X3856787Y-6816206D02*
X3866311Y-6825730D01*
X3866311Y-6825730D02*
X3875835Y-6844777D01*
X3875835Y-6844777D02*
X3885359Y-6882873D01*
X3885359Y-6882873D02*
X3885359Y-6930492D01*
X3885359Y-6930492D02*
X3875835Y-6968587D01*
X3875835Y-6968587D02*
X3866311Y-6987635D01*
X3866311Y-6987635D02*
X3856787Y-6997158D01*
X3856787Y-6997158D02*
X3837740Y-7006682D01*
X3837740Y-7006682D02*
X3818692Y-7006682D01*
X3818692Y-7006682D02*
X3799644Y-6997158D01*
X3799644Y-6997158D02*
X3790121Y-6987635D01*
X3790121Y-6987635D02*
X3780597Y-6968587D01*
X3780597Y-6968587D02*
X3771073Y-6930492D01*
X3771073Y-6930492D02*
X3771073Y-6882873D01*
X3771073Y-6882873D02*
X3780597Y-6844777D01*
X3780597Y-6844777D02*
X3790121Y-6825730D01*
X3790121Y-6825730D02*
X3799644Y-6816206D01*
X3799644Y-6816206D02*
X3818692Y-6806682D01*
X3971073Y-6987635D02*
X3980597Y-6997158D01*
X3980597Y-6997158D02*
X3971073Y-7006682D01*
X3971073Y-7006682D02*
X3961549Y-6997158D01*
X3961549Y-6997158D02*
X3971073Y-6987635D01*
X3971073Y-6987635D02*
X3971073Y-7006682D01*
X4104406Y-6806682D02*
X4123454Y-6806682D01*
X4123454Y-6806682D02*
X4142502Y-6816206D01*
X4142502Y-6816206D02*
X4152025Y-6825730D01*
X4152025Y-6825730D02*
X4161549Y-6844777D01*
X4161549Y-6844777D02*
X4171073Y-6882873D01*
X4171073Y-6882873D02*
X4171073Y-6930492D01*
X4171073Y-6930492D02*
X4161549Y-6968587D01*
X4161549Y-6968587D02*
X4152025Y-6987635D01*
X4152025Y-6987635D02*
X4142502Y-6997158D01*
X4142502Y-6997158D02*
X4123454Y-7006682D01*
X4123454Y-7006682D02*
X4104406Y-7006682D01*
X4104406Y-7006682D02*
X4085359Y-6997158D01*
X4085359Y-6997158D02*
X4075835Y-6987635D01*
X4075835Y-6987635D02*
X4066311Y-6968587D01*
X4066311Y-6968587D02*
X4056787Y-6930492D01*
X4056787Y-6930492D02*
X4056787Y-6882873D01*
X4056787Y-6882873D02*
X4066311Y-6844777D01*
X4066311Y-6844777D02*
X4075835Y-6825730D01*
X4075835Y-6825730D02*
X4085359Y-6816206D01*
X4085359Y-6816206D02*
X4104406Y-6806682D01*
X4237740Y-6806682D02*
X4371073Y-6806682D01*
X4371073Y-6806682D02*
X4285359Y-7006682D01*
X4532978Y-6806682D02*
X4494883Y-6806682D01*
X4494883Y-6806682D02*
X4475835Y-6816206D01*
X4475835Y-6816206D02*
X4466311Y-6825730D01*
X4466311Y-6825730D02*
X4447264Y-6854301D01*
X4447264Y-6854301D02*
X4437740Y-6892396D01*
X4437740Y-6892396D02*
X4437740Y-6968587D01*
X4437740Y-6968587D02*
X4447264Y-6987635D01*
X4447264Y-6987635D02*
X4456787Y-6997158D01*
X4456787Y-6997158D02*
X4475835Y-7006682D01*
X4475835Y-7006682D02*
X4513930Y-7006682D01*
X4513930Y-7006682D02*
X4532978Y-6997158D01*
X4532978Y-6997158D02*
X4542502Y-6987635D01*
X4542502Y-6987635D02*
X4552026Y-6968587D01*
X4552026Y-6968587D02*
X4552026Y-6920968D01*
X4552026Y-6920968D02*
X4542502Y-6901920D01*
X4542502Y-6901920D02*
X4532978Y-6892396D01*
X4532978Y-6892396D02*
X4513930Y-6882873D01*
X4513930Y-6882873D02*
X4475835Y-6882873D01*
X4475835Y-6882873D02*
X4456787Y-6892396D01*
X4456787Y-6892396D02*
X4447264Y-6901920D01*
X4447264Y-6901920D02*
X4437740Y-6920968D01*
X4666311Y-6892396D02*
X4647264Y-6882873D01*
X4647264Y-6882873D02*
X4637740Y-6873349D01*
X4637740Y-6873349D02*
X4628216Y-6854301D01*
X4628216Y-6854301D02*
X4628216Y-6844777D01*
X4628216Y-6844777D02*
X4637740Y-6825730D01*
X4637740Y-6825730D02*
X4647264Y-6816206D01*
X4647264Y-6816206D02*
X4666311Y-6806682D01*
X4666311Y-6806682D02*
X4704407Y-6806682D01*
X4704407Y-6806682D02*
X4723454Y-6816206D01*
X4723454Y-6816206D02*
X4732978Y-6825730D01*
X4732978Y-6825730D02*
X4742502Y-6844777D01*
X4742502Y-6844777D02*
X4742502Y-6854301D01*
X4742502Y-6854301D02*
X4732978Y-6873349D01*
X4732978Y-6873349D02*
X4723454Y-6882873D01*
X4723454Y-6882873D02*
X4704407Y-6892396D01*
X4704407Y-6892396D02*
X4666311Y-6892396D01*
X4666311Y-6892396D02*
X4647264Y-6901920D01*
X4647264Y-6901920D02*
X4637740Y-6911444D01*
X4637740Y-6911444D02*
X4628216Y-6930492D01*
X4628216Y-6930492D02*
X4628216Y-6968587D01*
X4628216Y-6968587D02*
X4637740Y-6987635D01*
X4637740Y-6987635D02*
X4647264Y-6997158D01*
X4647264Y-6997158D02*
X4666311Y-7006682D01*
X4666311Y-7006682D02*
X4704407Y-7006682D01*
X4704407Y-7006682D02*
X4723454Y-6997158D01*
X4723454Y-6997158D02*
X4732978Y-6987635D01*
X4732978Y-6987635D02*
X4742502Y-6968587D01*
X4742502Y-6968587D02*
X4742502Y-6930492D01*
X4742502Y-6930492D02*
X4732978Y-6911444D01*
X4732978Y-6911444D02*
X4723454Y-6901920D01*
X4723454Y-6901920D02*
X4704407Y-6892396D01*
X4818692Y-6806682D02*
X4818692Y-6844777D01*
X4894883Y-6806682D02*
X4894883Y-6844777D01*
X5190121Y-7082873D02*
X5180597Y-7073349D01*
X5180597Y-7073349D02*
X5161549Y-7044777D01*
X5161549Y-7044777D02*
X5152026Y-7025730D01*
X5152026Y-7025730D02*
X5142502Y-6997158D01*
X5142502Y-6997158D02*
X5132978Y-6949539D01*
X5132978Y-6949539D02*
X5132978Y-6911444D01*
X5132978Y-6911444D02*
X5142502Y-6863825D01*
X5142502Y-6863825D02*
X5152026Y-6835254D01*
X5152026Y-6835254D02*
X5161549Y-6816206D01*
X5161549Y-6816206D02*
X5180597Y-6787635D01*
X5180597Y-6787635D02*
X5190121Y-6778111D01*
X5371073Y-7006682D02*
X5256788Y-7006682D01*
X5313930Y-7006682D02*
X5313930Y-6806682D01*
X5313930Y-6806682D02*
X5294883Y-6835254D01*
X5294883Y-6835254D02*
X5275835Y-6854301D01*
X5275835Y-6854301D02*
X5256788Y-6863825D01*
X5447264Y-6825730D02*
X5456788Y-6816206D01*
X5456788Y-6816206D02*
X5475835Y-6806682D01*
X5475835Y-6806682D02*
X5523454Y-6806682D01*
X5523454Y-6806682D02*
X5542502Y-6816206D01*
X5542502Y-6816206D02*
X5552026Y-6825730D01*
X5552026Y-6825730D02*
X5561549Y-6844777D01*
X5561549Y-6844777D02*
X5561549Y-6863825D01*
X5561549Y-6863825D02*
X5552026Y-6892396D01*
X5552026Y-6892396D02*
X5437740Y-7006682D01*
X5437740Y-7006682D02*
X5561549Y-7006682D01*
X5799645Y-7006682D02*
X5799645Y-6806682D01*
X5885359Y-7006682D02*
X5885359Y-6901920D01*
X5885359Y-6901920D02*
X5875835Y-6882873D01*
X5875835Y-6882873D02*
X5856788Y-6873349D01*
X5856788Y-6873349D02*
X5828216Y-6873349D01*
X5828216Y-6873349D02*
X5809168Y-6882873D01*
X5809168Y-6882873D02*
X5799645Y-6892396D01*
X6009168Y-7006682D02*
X5990121Y-6997158D01*
X5990121Y-6997158D02*
X5980597Y-6987635D01*
X5980597Y-6987635D02*
X5971073Y-6968587D01*
X5971073Y-6968587D02*
X5971073Y-6911444D01*
X5971073Y-6911444D02*
X5980597Y-6892396D01*
X5980597Y-6892396D02*
X5990121Y-6882873D01*
X5990121Y-6882873D02*
X6009168Y-6873349D01*
X6009168Y-6873349D02*
X6037740Y-6873349D01*
X6037740Y-6873349D02*
X6056788Y-6882873D01*
X6056788Y-6882873D02*
X6066311Y-6892396D01*
X6066311Y-6892396D02*
X6075835Y-6911444D01*
X6075835Y-6911444D02*
X6075835Y-6968587D01*
X6075835Y-6968587D02*
X6066311Y-6987635D01*
X6066311Y-6987635D02*
X6056788Y-6997158D01*
X6056788Y-6997158D02*
X6037740Y-7006682D01*
X6037740Y-7006682D02*
X6009168Y-7006682D01*
X6190121Y-7006682D02*
X6171073Y-6997158D01*
X6171073Y-6997158D02*
X6161549Y-6978111D01*
X6161549Y-6978111D02*
X6161549Y-6806682D01*
X6342502Y-6997158D02*
X6323454Y-7006682D01*
X6323454Y-7006682D02*
X6285359Y-7006682D01*
X6285359Y-7006682D02*
X6266311Y-6997158D01*
X6266311Y-6997158D02*
X6256788Y-6978111D01*
X6256788Y-6978111D02*
X6256788Y-6901920D01*
X6256788Y-6901920D02*
X6266311Y-6882873D01*
X6266311Y-6882873D02*
X6285359Y-6873349D01*
X6285359Y-6873349D02*
X6323454Y-6873349D01*
X6323454Y-6873349D02*
X6342502Y-6882873D01*
X6342502Y-6882873D02*
X6352026Y-6901920D01*
X6352026Y-6901920D02*
X6352026Y-6920968D01*
X6352026Y-6920968D02*
X6256788Y-6940016D01*
X6428216Y-6997158D02*
X6447264Y-7006682D01*
X6447264Y-7006682D02*
X6485359Y-7006682D01*
X6485359Y-7006682D02*
X6504407Y-6997158D01*
X6504407Y-6997158D02*
X6513930Y-6978111D01*
X6513930Y-6978111D02*
X6513930Y-6968587D01*
X6513930Y-6968587D02*
X6504407Y-6949539D01*
X6504407Y-6949539D02*
X6485359Y-6940016D01*
X6485359Y-6940016D02*
X6456788Y-6940016D01*
X6456788Y-6940016D02*
X6437740Y-6930492D01*
X6437740Y-6930492D02*
X6428216Y-6911444D01*
X6428216Y-6911444D02*
X6428216Y-6901920D01*
X6428216Y-6901920D02*
X6437740Y-6882873D01*
X6437740Y-6882873D02*
X6456788Y-6873349D01*
X6456788Y-6873349D02*
X6485359Y-6873349D01*
X6485359Y-6873349D02*
X6504407Y-6882873D01*
X6580597Y-7082873D02*
X6590121Y-7073349D01*
X6590121Y-7073349D02*
X6609169Y-7044777D01*
X6609169Y-7044777D02*
X6618692Y-7025730D01*
X6618692Y-7025730D02*
X6628216Y-6997158D01*
X6628216Y-6997158D02*
X6637740Y-6949539D01*
X6637740Y-6949539D02*
X6637740Y-6911444D01*
X6637740Y-6911444D02*
X6628216Y-6863825D01*
X6628216Y-6863825D02*
X6618692Y-6835254D01*
X6618692Y-6835254D02*
X6609169Y-6816206D01*
X6609169Y-6816206D02*
X6590121Y-6787635D01*
X6590121Y-6787635D02*
X6580597Y-6778111D01*
X6942502Y-7082873D02*
X6932978Y-7073349D01*
X6932978Y-7073349D02*
X6913930Y-7044777D01*
X6913930Y-7044777D02*
X6904407Y-7025730D01*
X6904407Y-7025730D02*
X6894883Y-6997158D01*
X6894883Y-6997158D02*
X6885359Y-6949539D01*
X6885359Y-6949539D02*
X6885359Y-6911444D01*
X6885359Y-6911444D02*
X6894883Y-6863825D01*
X6894883Y-6863825D02*
X6904407Y-6835254D01*
X6904407Y-6835254D02*
X6913930Y-6816206D01*
X6913930Y-6816206D02*
X6932978Y-6787635D01*
X6932978Y-6787635D02*
X6942502Y-6778111D01*
X7018692Y-6873349D02*
X7018692Y-7006682D01*
X7018692Y-6892396D02*
X7028216Y-6882873D01*
X7028216Y-6882873D02*
X7047264Y-6873349D01*
X7047264Y-6873349D02*
X7075835Y-6873349D01*
X7075835Y-6873349D02*
X7094883Y-6882873D01*
X7094883Y-6882873D02*
X7104407Y-6901920D01*
X7104407Y-6901920D02*
X7104407Y-7006682D01*
X7228216Y-7006682D02*
X7209169Y-6997158D01*
X7209169Y-6997158D02*
X7199645Y-6987635D01*
X7199645Y-6987635D02*
X7190121Y-6968587D01*
X7190121Y-6968587D02*
X7190121Y-6911444D01*
X7190121Y-6911444D02*
X7199645Y-6892396D01*
X7199645Y-6892396D02*
X7209169Y-6882873D01*
X7209169Y-6882873D02*
X7228216Y-6873349D01*
X7228216Y-6873349D02*
X7256788Y-6873349D01*
X7256788Y-6873349D02*
X7275835Y-6882873D01*
X7275835Y-6882873D02*
X7285359Y-6892396D01*
X7285359Y-6892396D02*
X7294883Y-6911444D01*
X7294883Y-6911444D02*
X7294883Y-6968587D01*
X7294883Y-6968587D02*
X7285359Y-6987635D01*
X7285359Y-6987635D02*
X7275835Y-6997158D01*
X7275835Y-6997158D02*
X7256788Y-7006682D01*
X7256788Y-7006682D02*
X7228216Y-7006682D01*
X7352026Y-6873349D02*
X7428216Y-6873349D01*
X7380597Y-6806682D02*
X7380597Y-6978111D01*
X7380597Y-6978111D02*
X7390121Y-6997158D01*
X7390121Y-6997158D02*
X7409169Y-7006682D01*
X7409169Y-7006682D02*
X7428216Y-7006682D01*
X7647264Y-6873349D02*
X7647264Y-7073349D01*
X7647264Y-6882873D02*
X7666311Y-6873349D01*
X7666311Y-6873349D02*
X7704407Y-6873349D01*
X7704407Y-6873349D02*
X7723454Y-6882873D01*
X7723454Y-6882873D02*
X7732978Y-6892396D01*
X7732978Y-6892396D02*
X7742502Y-6911444D01*
X7742502Y-6911444D02*
X7742502Y-6968587D01*
X7742502Y-6968587D02*
X7732978Y-6987635D01*
X7732978Y-6987635D02*
X7723454Y-6997158D01*
X7723454Y-6997158D02*
X7704407Y-7006682D01*
X7704407Y-7006682D02*
X7666311Y-7006682D01*
X7666311Y-7006682D02*
X7647264Y-6997158D01*
X7856788Y-7006682D02*
X7837740Y-6997158D01*
X7837740Y-6997158D02*
X7828216Y-6978111D01*
X7828216Y-6978111D02*
X7828216Y-6806682D01*
X8018692Y-7006682D02*
X8018692Y-6901920D01*
X8018692Y-6901920D02*
X8009169Y-6882873D01*
X8009169Y-6882873D02*
X7990121Y-6873349D01*
X7990121Y-6873349D02*
X7952026Y-6873349D01*
X7952026Y-6873349D02*
X7932978Y-6882873D01*
X8018692Y-6997158D02*
X7999645Y-7006682D01*
X7999645Y-7006682D02*
X7952026Y-7006682D01*
X7952026Y-7006682D02*
X7932978Y-6997158D01*
X7932978Y-6997158D02*
X7923454Y-6978111D01*
X7923454Y-6978111D02*
X7923454Y-6959063D01*
X7923454Y-6959063D02*
X7932978Y-6940016D01*
X7932978Y-6940016D02*
X7952026Y-6930492D01*
X7952026Y-6930492D02*
X7999645Y-6930492D01*
X7999645Y-6930492D02*
X8018692Y-6920968D01*
X8085359Y-6873349D02*
X8161550Y-6873349D01*
X8113931Y-6806682D02*
X8113931Y-6978111D01*
X8113931Y-6978111D02*
X8123454Y-6997158D01*
X8123454Y-6997158D02*
X8142502Y-7006682D01*
X8142502Y-7006682D02*
X8161550Y-7006682D01*
X8304407Y-6997158D02*
X8285359Y-7006682D01*
X8285359Y-7006682D02*
X8247264Y-7006682D01*
X8247264Y-7006682D02*
X8228216Y-6997158D01*
X8228216Y-6997158D02*
X8218692Y-6978111D01*
X8218692Y-6978111D02*
X8218692Y-6901920D01*
X8218692Y-6901920D02*
X8228216Y-6882873D01*
X8228216Y-6882873D02*
X8247264Y-6873349D01*
X8247264Y-6873349D02*
X8285359Y-6873349D01*
X8285359Y-6873349D02*
X8304407Y-6882873D01*
X8304407Y-6882873D02*
X8313931Y-6901920D01*
X8313931Y-6901920D02*
X8313931Y-6920968D01*
X8313931Y-6920968D02*
X8218692Y-6940016D01*
X8485359Y-7006682D02*
X8485359Y-6806682D01*
X8485359Y-6997158D02*
X8466312Y-7006682D01*
X8466312Y-7006682D02*
X8428216Y-7006682D01*
X8428216Y-7006682D02*
X8409169Y-6997158D01*
X8409169Y-6997158D02*
X8399645Y-6987635D01*
X8399645Y-6987635D02*
X8390121Y-6968587D01*
X8390121Y-6968587D02*
X8390121Y-6911444D01*
X8390121Y-6911444D02*
X8399645Y-6892396D01*
X8399645Y-6892396D02*
X8409169Y-6882873D01*
X8409169Y-6882873D02*
X8428216Y-6873349D01*
X8428216Y-6873349D02*
X8466312Y-6873349D01*
X8466312Y-6873349D02*
X8485359Y-6882873D01*
X8561550Y-7082873D02*
X8571074Y-7073349D01*
X8571074Y-7073349D02*
X8590121Y-7044777D01*
X8590121Y-7044777D02*
X8599645Y-7025730D01*
X8599645Y-7025730D02*
X8609169Y-6997158D01*
X8609169Y-6997158D02*
X8618693Y-6949539D01*
X8618693Y-6949539D02*
X8618693Y-6911444D01*
X8618693Y-6911444D02*
X8609169Y-6863825D01*
X8609169Y-6863825D02*
X8599645Y-6835254D01*
X8599645Y-6835254D02*
X8590121Y-6816206D01*
X8590121Y-6816206D02*
X8571074Y-6787635D01*
X8571074Y-6787635D02*
X8561550Y-6778111D01*
M02*
