%TF.GenerationSoftware,KiCad,Pcbnew,7.0.1-0*%
%TF.CreationDate,2023-05-03T10:27:24+09:00*%
%TF.ProjectId,centerjoint-0cm-wSwitch,63656e74-6572-46a6-9f69-6e742d30636d,rev?*%
%TF.SameCoordinates,Original*%
%TF.FileFunction,Drillmap*%
%TF.FilePolarity,Positive*%
%FSLAX45Y45*%
G04 Gerber Fmt 4.5, Leading zero omitted, Abs format (unit mm)*
G04 Created by KiCad (PCBNEW 7.0.1-0) date 2023-05-03 10:27:24*
%MOMM*%
%LPD*%
G01*
G04 APERTURE LIST*
%ADD10C,0.150000*%
%ADD11C,0.100000*%
%ADD12C,0.200000*%
G04 APERTURE END LIST*
D10*
X5609191Y-2082009D02*
X8553944Y-1429173D01*
D11*
X4642662Y-6266658D02*
X6536906Y-6266658D01*
D10*
X2625625Y-1429165D02*
G75*
G03*
X2530950Y-1489487I-17185J-77485D01*
G01*
X1637597Y-5519150D02*
G75*
G03*
X1697909Y-5613822I77493J-17180D01*
G01*
X2625623Y-1429174D02*
X5570376Y-2082010D01*
X9481660Y-5613827D02*
G75*
G03*
X9541972Y-5519149I-17170J77487D01*
G01*
X1637595Y-5519149D02*
X2530950Y-1489487D01*
X8648624Y-1489485D02*
G75*
G03*
X8553944Y-1429173I-77484J-17165D01*
G01*
X8648618Y-1489487D02*
X9541972Y-5519149D01*
D11*
X5570376Y-2082010D02*
X5609191Y-2082009D01*
D10*
X9481659Y-5613822D02*
X6536906Y-6266658D01*
X4642662Y-6266658D02*
X1697909Y-5613822D01*
D12*
X1875835Y-6586682D02*
X1875835Y-6386682D01*
X1875835Y-6386682D02*
X1923454Y-6386682D01*
X1923454Y-6386682D02*
X1952025Y-6396206D01*
X1952025Y-6396206D02*
X1971073Y-6415254D01*
X1971073Y-6415254D02*
X1980597Y-6434301D01*
X1980597Y-6434301D02*
X1990120Y-6472396D01*
X1990120Y-6472396D02*
X1990120Y-6500968D01*
X1990120Y-6500968D02*
X1980597Y-6539063D01*
X1980597Y-6539063D02*
X1971073Y-6558111D01*
X1971073Y-6558111D02*
X1952025Y-6577158D01*
X1952025Y-6577158D02*
X1923454Y-6586682D01*
X1923454Y-6586682D02*
X1875835Y-6586682D01*
X2075835Y-6586682D02*
X2075835Y-6453349D01*
X2075835Y-6491444D02*
X2085359Y-6472396D01*
X2085359Y-6472396D02*
X2094882Y-6462873D01*
X2094882Y-6462873D02*
X2113930Y-6453349D01*
X2113930Y-6453349D02*
X2132978Y-6453349D01*
X2199644Y-6586682D02*
X2199644Y-6453349D01*
X2199644Y-6386682D02*
X2190121Y-6396206D01*
X2190121Y-6396206D02*
X2199644Y-6405730D01*
X2199644Y-6405730D02*
X2209168Y-6396206D01*
X2209168Y-6396206D02*
X2199644Y-6386682D01*
X2199644Y-6386682D02*
X2199644Y-6405730D01*
X2323454Y-6586682D02*
X2304406Y-6577158D01*
X2304406Y-6577158D02*
X2294882Y-6558111D01*
X2294882Y-6558111D02*
X2294882Y-6386682D01*
X2428216Y-6586682D02*
X2409168Y-6577158D01*
X2409168Y-6577158D02*
X2399644Y-6558111D01*
X2399644Y-6558111D02*
X2399644Y-6386682D01*
X2656787Y-6586682D02*
X2656787Y-6386682D01*
X2656787Y-6386682D02*
X2723454Y-6529539D01*
X2723454Y-6529539D02*
X2790121Y-6386682D01*
X2790121Y-6386682D02*
X2790121Y-6586682D01*
X2971073Y-6586682D02*
X2971073Y-6481920D01*
X2971073Y-6481920D02*
X2961549Y-6462873D01*
X2961549Y-6462873D02*
X2942501Y-6453349D01*
X2942501Y-6453349D02*
X2904406Y-6453349D01*
X2904406Y-6453349D02*
X2885359Y-6462873D01*
X2971073Y-6577158D02*
X2952025Y-6586682D01*
X2952025Y-6586682D02*
X2904406Y-6586682D01*
X2904406Y-6586682D02*
X2885359Y-6577158D01*
X2885359Y-6577158D02*
X2875835Y-6558111D01*
X2875835Y-6558111D02*
X2875835Y-6539063D01*
X2875835Y-6539063D02*
X2885359Y-6520016D01*
X2885359Y-6520016D02*
X2904406Y-6510492D01*
X2904406Y-6510492D02*
X2952025Y-6510492D01*
X2952025Y-6510492D02*
X2971073Y-6500968D01*
X3066311Y-6453349D02*
X3066311Y-6653349D01*
X3066311Y-6462873D02*
X3085359Y-6453349D01*
X3085359Y-6453349D02*
X3123454Y-6453349D01*
X3123454Y-6453349D02*
X3142501Y-6462873D01*
X3142501Y-6462873D02*
X3152025Y-6472396D01*
X3152025Y-6472396D02*
X3161549Y-6491444D01*
X3161549Y-6491444D02*
X3161549Y-6548587D01*
X3161549Y-6548587D02*
X3152025Y-6567635D01*
X3152025Y-6567635D02*
X3142501Y-6577158D01*
X3142501Y-6577158D02*
X3123454Y-6586682D01*
X3123454Y-6586682D02*
X3085359Y-6586682D01*
X3085359Y-6586682D02*
X3066311Y-6577158D01*
X3247263Y-6567635D02*
X3256787Y-6577158D01*
X3256787Y-6577158D02*
X3247263Y-6586682D01*
X3247263Y-6586682D02*
X3237740Y-6577158D01*
X3237740Y-6577158D02*
X3247263Y-6567635D01*
X3247263Y-6567635D02*
X3247263Y-6586682D01*
X3247263Y-6462873D02*
X3256787Y-6472396D01*
X3256787Y-6472396D02*
X3247263Y-6481920D01*
X3247263Y-6481920D02*
X3237740Y-6472396D01*
X3237740Y-6472396D02*
X3247263Y-6462873D01*
X3247263Y-6462873D02*
X3247263Y-6481920D01*
M02*
