%TF.GenerationSoftware,KiCad,Pcbnew,7.0.1-0*%
%TF.CreationDate,2023-05-03T10:27:22+09:00*%
%TF.ProjectId,centerjoint-0cm-wSwitch,63656e74-6572-46a6-9f69-6e742d30636d,rev?*%
%TF.SameCoordinates,Original*%
%TF.FileFunction,Legend,Top*%
%TF.FilePolarity,Positive*%
%FSLAX46Y46*%
G04 Gerber Fmt 4.6, Leading zero omitted, Abs format (unit mm)*
G04 Created by KiCad (PCBNEW 7.0.1-0) date 2023-05-03 10:27:22*
%MOMM*%
%LPD*%
G01*
G04 APERTURE LIST*
%ADD10C,0.250000*%
%ADD11C,0.150000*%
G04 APERTURE END LIST*
D10*
X31984269Y-24323569D02*
X31912841Y-24394998D01*
X31912841Y-24394998D02*
X31698555Y-24466426D01*
X31698555Y-24466426D02*
X31555698Y-24466426D01*
X31555698Y-24466426D02*
X31341412Y-24394998D01*
X31341412Y-24394998D02*
X31198555Y-24252140D01*
X31198555Y-24252140D02*
X31127126Y-24109283D01*
X31127126Y-24109283D02*
X31055698Y-23823569D01*
X31055698Y-23823569D02*
X31055698Y-23609283D01*
X31055698Y-23609283D02*
X31127126Y-23323569D01*
X31127126Y-23323569D02*
X31198555Y-23180712D01*
X31198555Y-23180712D02*
X31341412Y-23037855D01*
X31341412Y-23037855D02*
X31555698Y-22966426D01*
X31555698Y-22966426D02*
X31698555Y-22966426D01*
X31698555Y-22966426D02*
X31912841Y-23037855D01*
X31912841Y-23037855D02*
X31984269Y-23109283D01*
X33198555Y-24394998D02*
X33055698Y-24466426D01*
X33055698Y-24466426D02*
X32769984Y-24466426D01*
X32769984Y-24466426D02*
X32627126Y-24394998D01*
X32627126Y-24394998D02*
X32555698Y-24252140D01*
X32555698Y-24252140D02*
X32555698Y-23680712D01*
X32555698Y-23680712D02*
X32627126Y-23537855D01*
X32627126Y-23537855D02*
X32769984Y-23466426D01*
X32769984Y-23466426D02*
X33055698Y-23466426D01*
X33055698Y-23466426D02*
X33198555Y-23537855D01*
X33198555Y-23537855D02*
X33269984Y-23680712D01*
X33269984Y-23680712D02*
X33269984Y-23823569D01*
X33269984Y-23823569D02*
X32555698Y-23966426D01*
X33912840Y-23466426D02*
X33912840Y-24466426D01*
X33912840Y-23609283D02*
X33984269Y-23537855D01*
X33984269Y-23537855D02*
X34127126Y-23466426D01*
X34127126Y-23466426D02*
X34341412Y-23466426D01*
X34341412Y-23466426D02*
X34484269Y-23537855D01*
X34484269Y-23537855D02*
X34555698Y-23680712D01*
X34555698Y-23680712D02*
X34555698Y-24466426D01*
X35055698Y-23466426D02*
X35627126Y-23466426D01*
X35269983Y-22966426D02*
X35269983Y-24252140D01*
X35269983Y-24252140D02*
X35341412Y-24394998D01*
X35341412Y-24394998D02*
X35484269Y-24466426D01*
X35484269Y-24466426D02*
X35627126Y-24466426D01*
X36698555Y-24394998D02*
X36555698Y-24466426D01*
X36555698Y-24466426D02*
X36269984Y-24466426D01*
X36269984Y-24466426D02*
X36127126Y-24394998D01*
X36127126Y-24394998D02*
X36055698Y-24252140D01*
X36055698Y-24252140D02*
X36055698Y-23680712D01*
X36055698Y-23680712D02*
X36127126Y-23537855D01*
X36127126Y-23537855D02*
X36269984Y-23466426D01*
X36269984Y-23466426D02*
X36555698Y-23466426D01*
X36555698Y-23466426D02*
X36698555Y-23537855D01*
X36698555Y-23537855D02*
X36769984Y-23680712D01*
X36769984Y-23680712D02*
X36769984Y-23823569D01*
X36769984Y-23823569D02*
X36055698Y-23966426D01*
X37412840Y-24466426D02*
X37412840Y-23466426D01*
X37412840Y-23752140D02*
X37484269Y-23609283D01*
X37484269Y-23609283D02*
X37555698Y-23537855D01*
X37555698Y-23537855D02*
X37698555Y-23466426D01*
X37698555Y-23466426D02*
X37841412Y-23466426D01*
X39912840Y-22966426D02*
X39912840Y-24037855D01*
X39912840Y-24037855D02*
X39841411Y-24252140D01*
X39841411Y-24252140D02*
X39698554Y-24394998D01*
X39698554Y-24394998D02*
X39484268Y-24466426D01*
X39484268Y-24466426D02*
X39341411Y-24466426D01*
X40841411Y-24466426D02*
X40698554Y-24394998D01*
X40698554Y-24394998D02*
X40627125Y-24323569D01*
X40627125Y-24323569D02*
X40555697Y-24180712D01*
X40555697Y-24180712D02*
X40555697Y-23752140D01*
X40555697Y-23752140D02*
X40627125Y-23609283D01*
X40627125Y-23609283D02*
X40698554Y-23537855D01*
X40698554Y-23537855D02*
X40841411Y-23466426D01*
X40841411Y-23466426D02*
X41055697Y-23466426D01*
X41055697Y-23466426D02*
X41198554Y-23537855D01*
X41198554Y-23537855D02*
X41269983Y-23609283D01*
X41269983Y-23609283D02*
X41341411Y-23752140D01*
X41341411Y-23752140D02*
X41341411Y-24180712D01*
X41341411Y-24180712D02*
X41269983Y-24323569D01*
X41269983Y-24323569D02*
X41198554Y-24394998D01*
X41198554Y-24394998D02*
X41055697Y-24466426D01*
X41055697Y-24466426D02*
X40841411Y-24466426D01*
X41984268Y-24466426D02*
X41984268Y-23466426D01*
X41984268Y-22966426D02*
X41912840Y-23037855D01*
X41912840Y-23037855D02*
X41984268Y-23109283D01*
X41984268Y-23109283D02*
X42055697Y-23037855D01*
X42055697Y-23037855D02*
X41984268Y-22966426D01*
X41984268Y-22966426D02*
X41984268Y-23109283D01*
X42698554Y-23466426D02*
X42698554Y-24466426D01*
X42698554Y-23609283D02*
X42769983Y-23537855D01*
X42769983Y-23537855D02*
X42912840Y-23466426D01*
X42912840Y-23466426D02*
X43127126Y-23466426D01*
X43127126Y-23466426D02*
X43269983Y-23537855D01*
X43269983Y-23537855D02*
X43341412Y-23680712D01*
X43341412Y-23680712D02*
X43341412Y-24466426D01*
X43841412Y-23466426D02*
X44412840Y-23466426D01*
X44055697Y-22966426D02*
X44055697Y-24252140D01*
X44055697Y-24252140D02*
X44127126Y-24394998D01*
X44127126Y-24394998D02*
X44269983Y-24466426D01*
X44269983Y-24466426D02*
X44412840Y-24466426D01*
X30912841Y-25896426D02*
X31484269Y-25896426D01*
X31127126Y-26896426D02*
X31127126Y-25610712D01*
X31127126Y-25610712D02*
X31198555Y-25467855D01*
X31198555Y-25467855D02*
X31341412Y-25396426D01*
X31341412Y-25396426D02*
X31484269Y-25396426D01*
X32198555Y-26896426D02*
X32055698Y-26824998D01*
X32055698Y-26824998D02*
X31984269Y-26753569D01*
X31984269Y-26753569D02*
X31912841Y-26610712D01*
X31912841Y-26610712D02*
X31912841Y-26182140D01*
X31912841Y-26182140D02*
X31984269Y-26039283D01*
X31984269Y-26039283D02*
X32055698Y-25967855D01*
X32055698Y-25967855D02*
X32198555Y-25896426D01*
X32198555Y-25896426D02*
X32412841Y-25896426D01*
X32412841Y-25896426D02*
X32555698Y-25967855D01*
X32555698Y-25967855D02*
X32627127Y-26039283D01*
X32627127Y-26039283D02*
X32698555Y-26182140D01*
X32698555Y-26182140D02*
X32698555Y-26610712D01*
X32698555Y-26610712D02*
X32627127Y-26753569D01*
X32627127Y-26753569D02*
X32555698Y-26824998D01*
X32555698Y-26824998D02*
X32412841Y-26896426D01*
X32412841Y-26896426D02*
X32198555Y-26896426D01*
X33341412Y-26896426D02*
X33341412Y-25896426D01*
X33341412Y-26182140D02*
X33412841Y-26039283D01*
X33412841Y-26039283D02*
X33484270Y-25967855D01*
X33484270Y-25967855D02*
X33627127Y-25896426D01*
X33627127Y-25896426D02*
X33769984Y-25896426D01*
X35412840Y-26896426D02*
X35412840Y-25396426D01*
X35412840Y-25396426D02*
X35984269Y-25396426D01*
X35984269Y-25396426D02*
X36127126Y-25467855D01*
X36127126Y-25467855D02*
X36198555Y-25539283D01*
X36198555Y-25539283D02*
X36269983Y-25682140D01*
X36269983Y-25682140D02*
X36269983Y-25896426D01*
X36269983Y-25896426D02*
X36198555Y-26039283D01*
X36198555Y-26039283D02*
X36127126Y-26110712D01*
X36127126Y-26110712D02*
X35984269Y-26182140D01*
X35984269Y-26182140D02*
X35412840Y-26182140D01*
X37555698Y-26896426D02*
X37555698Y-26110712D01*
X37555698Y-26110712D02*
X37484269Y-25967855D01*
X37484269Y-25967855D02*
X37341412Y-25896426D01*
X37341412Y-25896426D02*
X37055698Y-25896426D01*
X37055698Y-25896426D02*
X36912840Y-25967855D01*
X37555698Y-26824998D02*
X37412840Y-26896426D01*
X37412840Y-26896426D02*
X37055698Y-26896426D01*
X37055698Y-26896426D02*
X36912840Y-26824998D01*
X36912840Y-26824998D02*
X36841412Y-26682140D01*
X36841412Y-26682140D02*
X36841412Y-26539283D01*
X36841412Y-26539283D02*
X36912840Y-26396426D01*
X36912840Y-26396426D02*
X37055698Y-26324998D01*
X37055698Y-26324998D02*
X37412840Y-26324998D01*
X37412840Y-26324998D02*
X37555698Y-26253569D01*
X38269983Y-25896426D02*
X38269983Y-26896426D01*
X38269983Y-26039283D02*
X38341412Y-25967855D01*
X38341412Y-25967855D02*
X38484269Y-25896426D01*
X38484269Y-25896426D02*
X38698555Y-25896426D01*
X38698555Y-25896426D02*
X38841412Y-25967855D01*
X38841412Y-25967855D02*
X38912841Y-26110712D01*
X38912841Y-26110712D02*
X38912841Y-26896426D01*
X40269984Y-25896426D02*
X40269984Y-27110712D01*
X40269984Y-27110712D02*
X40198555Y-27253569D01*
X40198555Y-27253569D02*
X40127126Y-27324998D01*
X40127126Y-27324998D02*
X39984269Y-27396426D01*
X39984269Y-27396426D02*
X39769984Y-27396426D01*
X39769984Y-27396426D02*
X39627126Y-27324998D01*
X40269984Y-26824998D02*
X40127126Y-26896426D01*
X40127126Y-26896426D02*
X39841412Y-26896426D01*
X39841412Y-26896426D02*
X39698555Y-26824998D01*
X39698555Y-26824998D02*
X39627126Y-26753569D01*
X39627126Y-26753569D02*
X39555698Y-26610712D01*
X39555698Y-26610712D02*
X39555698Y-26182140D01*
X39555698Y-26182140D02*
X39627126Y-26039283D01*
X39627126Y-26039283D02*
X39698555Y-25967855D01*
X39698555Y-25967855D02*
X39841412Y-25896426D01*
X39841412Y-25896426D02*
X40127126Y-25896426D01*
X40127126Y-25896426D02*
X40269984Y-25967855D01*
X41627127Y-26896426D02*
X41627127Y-26110712D01*
X41627127Y-26110712D02*
X41555698Y-25967855D01*
X41555698Y-25967855D02*
X41412841Y-25896426D01*
X41412841Y-25896426D02*
X41127127Y-25896426D01*
X41127127Y-25896426D02*
X40984269Y-25967855D01*
X41627127Y-26824998D02*
X41484269Y-26896426D01*
X41484269Y-26896426D02*
X41127127Y-26896426D01*
X41127127Y-26896426D02*
X40984269Y-26824998D01*
X40984269Y-26824998D02*
X40912841Y-26682140D01*
X40912841Y-26682140D02*
X40912841Y-26539283D01*
X40912841Y-26539283D02*
X40984269Y-26396426D01*
X40984269Y-26396426D02*
X41127127Y-26324998D01*
X41127127Y-26324998D02*
X41484269Y-26324998D01*
X41484269Y-26324998D02*
X41627127Y-26253569D01*
X42912841Y-26824998D02*
X42769984Y-26896426D01*
X42769984Y-26896426D02*
X42484270Y-26896426D01*
X42484270Y-26896426D02*
X42341412Y-26824998D01*
X42341412Y-26824998D02*
X42269984Y-26682140D01*
X42269984Y-26682140D02*
X42269984Y-26110712D01*
X42269984Y-26110712D02*
X42341412Y-25967855D01*
X42341412Y-25967855D02*
X42484270Y-25896426D01*
X42484270Y-25896426D02*
X42769984Y-25896426D01*
X42769984Y-25896426D02*
X42912841Y-25967855D01*
X42912841Y-25967855D02*
X42984270Y-26110712D01*
X42984270Y-26110712D02*
X42984270Y-26253569D01*
X42984270Y-26253569D02*
X42269984Y-26396426D01*
X44269984Y-26896426D02*
X44269984Y-26110712D01*
X44269984Y-26110712D02*
X44198555Y-25967855D01*
X44198555Y-25967855D02*
X44055698Y-25896426D01*
X44055698Y-25896426D02*
X43769984Y-25896426D01*
X43769984Y-25896426D02*
X43627126Y-25967855D01*
X44269984Y-26824998D02*
X44127126Y-26896426D01*
X44127126Y-26896426D02*
X43769984Y-26896426D01*
X43769984Y-26896426D02*
X43627126Y-26824998D01*
X43627126Y-26824998D02*
X43555698Y-26682140D01*
X43555698Y-26682140D02*
X43555698Y-26539283D01*
X43555698Y-26539283D02*
X43627126Y-26396426D01*
X43627126Y-26396426D02*
X43769984Y-26324998D01*
X43769984Y-26324998D02*
X44127126Y-26324998D01*
X44127126Y-26324998D02*
X44269984Y-26253569D01*
D11*
X27608079Y-55697390D02*
X27608079Y-55030723D01*
X27608079Y-55221199D02*
X27655698Y-55125961D01*
X27655698Y-55125961D02*
X27703317Y-55078342D01*
X27703317Y-55078342D02*
X27798555Y-55030723D01*
X27798555Y-55030723D02*
X27893793Y-55030723D01*
X28608079Y-55649771D02*
X28512841Y-55697390D01*
X28512841Y-55697390D02*
X28322365Y-55697390D01*
X28322365Y-55697390D02*
X28227127Y-55649771D01*
X28227127Y-55649771D02*
X28179508Y-55554532D01*
X28179508Y-55554532D02*
X28179508Y-55173580D01*
X28179508Y-55173580D02*
X28227127Y-55078342D01*
X28227127Y-55078342D02*
X28322365Y-55030723D01*
X28322365Y-55030723D02*
X28512841Y-55030723D01*
X28512841Y-55030723D02*
X28608079Y-55078342D01*
X28608079Y-55078342D02*
X28655698Y-55173580D01*
X28655698Y-55173580D02*
X28655698Y-55268818D01*
X28655698Y-55268818D02*
X28179508Y-55364056D01*
X28989032Y-55030723D02*
X29227127Y-55697390D01*
X29227127Y-55697390D02*
X29465222Y-55030723D01*
X30369984Y-55697390D02*
X29798556Y-55697390D01*
X30084270Y-55697390D02*
X30084270Y-54697390D01*
X30084270Y-54697390D02*
X29989032Y-54840247D01*
X29989032Y-54840247D02*
X29893794Y-54935485D01*
X29893794Y-54935485D02*
X29798556Y-54983104D01*
X30798556Y-55602151D02*
X30846175Y-55649771D01*
X30846175Y-55649771D02*
X30798556Y-55697390D01*
X30798556Y-55697390D02*
X30750937Y-55649771D01*
X30750937Y-55649771D02*
X30798556Y-55602151D01*
X30798556Y-55602151D02*
X30798556Y-55697390D01*
X31465222Y-54697390D02*
X31560460Y-54697390D01*
X31560460Y-54697390D02*
X31655698Y-54745009D01*
X31655698Y-54745009D02*
X31703317Y-54792628D01*
X31703317Y-54792628D02*
X31750936Y-54887866D01*
X31750936Y-54887866D02*
X31798555Y-55078342D01*
X31798555Y-55078342D02*
X31798555Y-55316437D01*
X31798555Y-55316437D02*
X31750936Y-55506913D01*
X31750936Y-55506913D02*
X31703317Y-55602151D01*
X31703317Y-55602151D02*
X31655698Y-55649771D01*
X31655698Y-55649771D02*
X31560460Y-55697390D01*
X31560460Y-55697390D02*
X31465222Y-55697390D01*
X31465222Y-55697390D02*
X31369984Y-55649771D01*
X31369984Y-55649771D02*
X31322365Y-55602151D01*
X31322365Y-55602151D02*
X31274746Y-55506913D01*
X31274746Y-55506913D02*
X31227127Y-55316437D01*
X31227127Y-55316437D02*
X31227127Y-55078342D01*
X31227127Y-55078342D02*
X31274746Y-54887866D01*
X31274746Y-54887866D02*
X31322365Y-54792628D01*
X31322365Y-54792628D02*
X31369984Y-54745009D01*
X31369984Y-54745009D02*
X31465222Y-54697390D01*
X27808079Y-57297390D02*
X27808079Y-56297390D01*
X27808079Y-56297390D02*
X28141412Y-57011675D01*
X28141412Y-57011675D02*
X28474745Y-56297390D01*
X28474745Y-56297390D02*
X28474745Y-57297390D01*
X29379507Y-57297390D02*
X29379507Y-56773580D01*
X29379507Y-56773580D02*
X29331888Y-56678342D01*
X29331888Y-56678342D02*
X29236650Y-56630723D01*
X29236650Y-56630723D02*
X29046174Y-56630723D01*
X29046174Y-56630723D02*
X28950936Y-56678342D01*
X29379507Y-57249771D02*
X29284269Y-57297390D01*
X29284269Y-57297390D02*
X29046174Y-57297390D01*
X29046174Y-57297390D02*
X28950936Y-57249771D01*
X28950936Y-57249771D02*
X28903317Y-57154532D01*
X28903317Y-57154532D02*
X28903317Y-57059294D01*
X28903317Y-57059294D02*
X28950936Y-56964056D01*
X28950936Y-56964056D02*
X29046174Y-56916437D01*
X29046174Y-56916437D02*
X29284269Y-56916437D01*
X29284269Y-56916437D02*
X29379507Y-56868818D01*
X29760460Y-56630723D02*
X29998555Y-57297390D01*
X30236650Y-56630723D02*
X29998555Y-57297390D01*
X29998555Y-57297390D02*
X29903317Y-57535485D01*
X29903317Y-57535485D02*
X29855698Y-57583104D01*
X29855698Y-57583104D02*
X29760460Y-57630723D01*
X31284270Y-56297390D02*
X31903317Y-56297390D01*
X31903317Y-56297390D02*
X31569984Y-56678342D01*
X31569984Y-56678342D02*
X31712841Y-56678342D01*
X31712841Y-56678342D02*
X31808079Y-56725961D01*
X31808079Y-56725961D02*
X31855698Y-56773580D01*
X31855698Y-56773580D02*
X31903317Y-56868818D01*
X31903317Y-56868818D02*
X31903317Y-57106913D01*
X31903317Y-57106913D02*
X31855698Y-57202151D01*
X31855698Y-57202151D02*
X31808079Y-57249771D01*
X31808079Y-57249771D02*
X31712841Y-57297390D01*
X31712841Y-57297390D02*
X31427127Y-57297390D01*
X31427127Y-57297390D02*
X31331889Y-57249771D01*
X31331889Y-57249771D02*
X31284270Y-57202151D01*
X32379508Y-57249771D02*
X32379508Y-57297390D01*
X32379508Y-57297390D02*
X32331889Y-57392628D01*
X32331889Y-57392628D02*
X32284270Y-57440247D01*
X33522365Y-56392628D02*
X33569984Y-56345009D01*
X33569984Y-56345009D02*
X33665222Y-56297390D01*
X33665222Y-56297390D02*
X33903317Y-56297390D01*
X33903317Y-56297390D02*
X33998555Y-56345009D01*
X33998555Y-56345009D02*
X34046174Y-56392628D01*
X34046174Y-56392628D02*
X34093793Y-56487866D01*
X34093793Y-56487866D02*
X34093793Y-56583104D01*
X34093793Y-56583104D02*
X34046174Y-56725961D01*
X34046174Y-56725961D02*
X33474746Y-57297390D01*
X33474746Y-57297390D02*
X34093793Y-57297390D01*
X34712841Y-56297390D02*
X34808079Y-56297390D01*
X34808079Y-56297390D02*
X34903317Y-56345009D01*
X34903317Y-56345009D02*
X34950936Y-56392628D01*
X34950936Y-56392628D02*
X34998555Y-56487866D01*
X34998555Y-56487866D02*
X35046174Y-56678342D01*
X35046174Y-56678342D02*
X35046174Y-56916437D01*
X35046174Y-56916437D02*
X34998555Y-57106913D01*
X34998555Y-57106913D02*
X34950936Y-57202151D01*
X34950936Y-57202151D02*
X34903317Y-57249771D01*
X34903317Y-57249771D02*
X34808079Y-57297390D01*
X34808079Y-57297390D02*
X34712841Y-57297390D01*
X34712841Y-57297390D02*
X34617603Y-57249771D01*
X34617603Y-57249771D02*
X34569984Y-57202151D01*
X34569984Y-57202151D02*
X34522365Y-57106913D01*
X34522365Y-57106913D02*
X34474746Y-56916437D01*
X34474746Y-56916437D02*
X34474746Y-56678342D01*
X34474746Y-56678342D02*
X34522365Y-56487866D01*
X34522365Y-56487866D02*
X34569984Y-56392628D01*
X34569984Y-56392628D02*
X34617603Y-56345009D01*
X34617603Y-56345009D02*
X34712841Y-56297390D01*
X35427127Y-56392628D02*
X35474746Y-56345009D01*
X35474746Y-56345009D02*
X35569984Y-56297390D01*
X35569984Y-56297390D02*
X35808079Y-56297390D01*
X35808079Y-56297390D02*
X35903317Y-56345009D01*
X35903317Y-56345009D02*
X35950936Y-56392628D01*
X35950936Y-56392628D02*
X35998555Y-56487866D01*
X35998555Y-56487866D02*
X35998555Y-56583104D01*
X35998555Y-56583104D02*
X35950936Y-56725961D01*
X35950936Y-56725961D02*
X35379508Y-57297390D01*
X35379508Y-57297390D02*
X35998555Y-57297390D01*
X36331889Y-56297390D02*
X36950936Y-56297390D01*
X36950936Y-56297390D02*
X36617603Y-56678342D01*
X36617603Y-56678342D02*
X36760460Y-56678342D01*
X36760460Y-56678342D02*
X36855698Y-56725961D01*
X36855698Y-56725961D02*
X36903317Y-56773580D01*
X36903317Y-56773580D02*
X36950936Y-56868818D01*
X36950936Y-56868818D02*
X36950936Y-57106913D01*
X36950936Y-57106913D02*
X36903317Y-57202151D01*
X36903317Y-57202151D02*
X36855698Y-57249771D01*
X36855698Y-57249771D02*
X36760460Y-57297390D01*
X36760460Y-57297390D02*
X36474746Y-57297390D01*
X36474746Y-57297390D02*
X36379508Y-57249771D01*
X36379508Y-57249771D02*
X36331889Y-57202151D01*
X28981461Y-42107855D02*
X29695747Y-42107855D01*
X28838604Y-42536426D02*
X29338604Y-41036426D01*
X29338604Y-41036426D02*
X29838604Y-42536426D01*
X30338603Y-41536426D02*
X30338603Y-42536426D01*
X30338603Y-41679283D02*
X30410032Y-41607855D01*
X30410032Y-41607855D02*
X30552889Y-41536426D01*
X30552889Y-41536426D02*
X30767175Y-41536426D01*
X30767175Y-41536426D02*
X30910032Y-41607855D01*
X30910032Y-41607855D02*
X30981461Y-41750712D01*
X30981461Y-41750712D02*
X30981461Y-42536426D01*
X32338604Y-41536426D02*
X32338604Y-42750712D01*
X32338604Y-42750712D02*
X32267175Y-42893569D01*
X32267175Y-42893569D02*
X32195746Y-42964998D01*
X32195746Y-42964998D02*
X32052889Y-43036426D01*
X32052889Y-43036426D02*
X31838604Y-43036426D01*
X31838604Y-43036426D02*
X31695746Y-42964998D01*
X32338604Y-42464998D02*
X32195746Y-42536426D01*
X32195746Y-42536426D02*
X31910032Y-42536426D01*
X31910032Y-42536426D02*
X31767175Y-42464998D01*
X31767175Y-42464998D02*
X31695746Y-42393569D01*
X31695746Y-42393569D02*
X31624318Y-42250712D01*
X31624318Y-42250712D02*
X31624318Y-41822140D01*
X31624318Y-41822140D02*
X31695746Y-41679283D01*
X31695746Y-41679283D02*
X31767175Y-41607855D01*
X31767175Y-41607855D02*
X31910032Y-41536426D01*
X31910032Y-41536426D02*
X32195746Y-41536426D01*
X32195746Y-41536426D02*
X32338604Y-41607855D01*
X33267175Y-42536426D02*
X33124318Y-42464998D01*
X33124318Y-42464998D02*
X33052889Y-42322140D01*
X33052889Y-42322140D02*
X33052889Y-41036426D01*
X34410032Y-42464998D02*
X34267175Y-42536426D01*
X34267175Y-42536426D02*
X33981461Y-42536426D01*
X33981461Y-42536426D02*
X33838603Y-42464998D01*
X33838603Y-42464998D02*
X33767175Y-42322140D01*
X33767175Y-42322140D02*
X33767175Y-41750712D01*
X33767175Y-41750712D02*
X33838603Y-41607855D01*
X33838603Y-41607855D02*
X33981461Y-41536426D01*
X33981461Y-41536426D02*
X34267175Y-41536426D01*
X34267175Y-41536426D02*
X34410032Y-41607855D01*
X34410032Y-41607855D02*
X34481461Y-41750712D01*
X34481461Y-41750712D02*
X34481461Y-41893569D01*
X34481461Y-41893569D02*
X33767175Y-42036426D01*
X31267175Y-43609283D02*
X31338603Y-43537855D01*
X31338603Y-43537855D02*
X31481461Y-43466426D01*
X31481461Y-43466426D02*
X31838603Y-43466426D01*
X31838603Y-43466426D02*
X31981461Y-43537855D01*
X31981461Y-43537855D02*
X32052889Y-43609283D01*
X32052889Y-43609283D02*
X32124318Y-43752140D01*
X32124318Y-43752140D02*
X32124318Y-43894998D01*
X32124318Y-43894998D02*
X32052889Y-44109283D01*
X32052889Y-44109283D02*
X31195746Y-44966426D01*
X31195746Y-44966426D02*
X32124318Y-44966426D01*
X33481460Y-43466426D02*
X32767174Y-43466426D01*
X32767174Y-43466426D02*
X32695746Y-44180712D01*
X32695746Y-44180712D02*
X32767174Y-44109283D01*
X32767174Y-44109283D02*
X32910032Y-44037855D01*
X32910032Y-44037855D02*
X33267174Y-44037855D01*
X33267174Y-44037855D02*
X33410032Y-44109283D01*
X33410032Y-44109283D02*
X33481460Y-44180712D01*
X33481460Y-44180712D02*
X33552889Y-44323569D01*
X33552889Y-44323569D02*
X33552889Y-44680712D01*
X33552889Y-44680712D02*
X33481460Y-44823569D01*
X33481460Y-44823569D02*
X33410032Y-44894998D01*
X33410032Y-44894998D02*
X33267174Y-44966426D01*
X33267174Y-44966426D02*
X32910032Y-44966426D01*
X32910032Y-44966426D02*
X32767174Y-44894998D01*
X32767174Y-44894998D02*
X32695746Y-44823569D01*
X35981460Y-44966426D02*
X35981460Y-43466426D01*
X35981460Y-44894998D02*
X35838602Y-44966426D01*
X35838602Y-44966426D02*
X35552888Y-44966426D01*
X35552888Y-44966426D02*
X35410031Y-44894998D01*
X35410031Y-44894998D02*
X35338602Y-44823569D01*
X35338602Y-44823569D02*
X35267174Y-44680712D01*
X35267174Y-44680712D02*
X35267174Y-44252140D01*
X35267174Y-44252140D02*
X35338602Y-44109283D01*
X35338602Y-44109283D02*
X35410031Y-44037855D01*
X35410031Y-44037855D02*
X35552888Y-43966426D01*
X35552888Y-43966426D02*
X35838602Y-43966426D01*
X35838602Y-43966426D02*
X35981460Y-44037855D01*
X37267174Y-44894998D02*
X37124317Y-44966426D01*
X37124317Y-44966426D02*
X36838603Y-44966426D01*
X36838603Y-44966426D02*
X36695745Y-44894998D01*
X36695745Y-44894998D02*
X36624317Y-44752140D01*
X36624317Y-44752140D02*
X36624317Y-44180712D01*
X36624317Y-44180712D02*
X36695745Y-44037855D01*
X36695745Y-44037855D02*
X36838603Y-43966426D01*
X36838603Y-43966426D02*
X37124317Y-43966426D01*
X37124317Y-43966426D02*
X37267174Y-44037855D01*
X37267174Y-44037855D02*
X37338603Y-44180712D01*
X37338603Y-44180712D02*
X37338603Y-44323569D01*
X37338603Y-44323569D02*
X36624317Y-44466426D01*
X38624317Y-43966426D02*
X38624317Y-45180712D01*
X38624317Y-45180712D02*
X38552888Y-45323569D01*
X38552888Y-45323569D02*
X38481459Y-45394998D01*
X38481459Y-45394998D02*
X38338602Y-45466426D01*
X38338602Y-45466426D02*
X38124317Y-45466426D01*
X38124317Y-45466426D02*
X37981459Y-45394998D01*
X38624317Y-44894998D02*
X38481459Y-44966426D01*
X38481459Y-44966426D02*
X38195745Y-44966426D01*
X38195745Y-44966426D02*
X38052888Y-44894998D01*
X38052888Y-44894998D02*
X37981459Y-44823569D01*
X37981459Y-44823569D02*
X37910031Y-44680712D01*
X37910031Y-44680712D02*
X37910031Y-44252140D01*
X37910031Y-44252140D02*
X37981459Y-44109283D01*
X37981459Y-44109283D02*
X38052888Y-44037855D01*
X38052888Y-44037855D02*
X38195745Y-43966426D01*
X38195745Y-43966426D02*
X38481459Y-43966426D01*
X38481459Y-43966426D02*
X38624317Y-44037855D01*
X39338602Y-44966426D02*
X39338602Y-43966426D01*
X39338602Y-44252140D02*
X39410031Y-44109283D01*
X39410031Y-44109283D02*
X39481460Y-44037855D01*
X39481460Y-44037855D02*
X39624317Y-43966426D01*
X39624317Y-43966426D02*
X39767174Y-43966426D01*
X40838602Y-44894998D02*
X40695745Y-44966426D01*
X40695745Y-44966426D02*
X40410031Y-44966426D01*
X40410031Y-44966426D02*
X40267173Y-44894998D01*
X40267173Y-44894998D02*
X40195745Y-44752140D01*
X40195745Y-44752140D02*
X40195745Y-44180712D01*
X40195745Y-44180712D02*
X40267173Y-44037855D01*
X40267173Y-44037855D02*
X40410031Y-43966426D01*
X40410031Y-43966426D02*
X40695745Y-43966426D01*
X40695745Y-43966426D02*
X40838602Y-44037855D01*
X40838602Y-44037855D02*
X40910031Y-44180712D01*
X40910031Y-44180712D02*
X40910031Y-44323569D01*
X40910031Y-44323569D02*
X40195745Y-44466426D01*
X42124316Y-44894998D02*
X41981459Y-44966426D01*
X41981459Y-44966426D02*
X41695745Y-44966426D01*
X41695745Y-44966426D02*
X41552887Y-44894998D01*
X41552887Y-44894998D02*
X41481459Y-44752140D01*
X41481459Y-44752140D02*
X41481459Y-44180712D01*
X41481459Y-44180712D02*
X41552887Y-44037855D01*
X41552887Y-44037855D02*
X41695745Y-43966426D01*
X41695745Y-43966426D02*
X41981459Y-43966426D01*
X41981459Y-43966426D02*
X42124316Y-44037855D01*
X42124316Y-44037855D02*
X42195745Y-44180712D01*
X42195745Y-44180712D02*
X42195745Y-44323569D01*
X42195745Y-44323569D02*
X41481459Y-44466426D01*
X29052889Y-47396426D02*
X29052889Y-45896426D01*
X29052889Y-45896426D02*
X29410032Y-45896426D01*
X29410032Y-45896426D02*
X29624318Y-45967855D01*
X29624318Y-45967855D02*
X29767175Y-46110712D01*
X29767175Y-46110712D02*
X29838604Y-46253569D01*
X29838604Y-46253569D02*
X29910032Y-46539283D01*
X29910032Y-46539283D02*
X29910032Y-46753569D01*
X29910032Y-46753569D02*
X29838604Y-47039283D01*
X29838604Y-47039283D02*
X29767175Y-47182140D01*
X29767175Y-47182140D02*
X29624318Y-47324998D01*
X29624318Y-47324998D02*
X29410032Y-47396426D01*
X29410032Y-47396426D02*
X29052889Y-47396426D01*
X30552889Y-47396426D02*
X30552889Y-46396426D01*
X30552889Y-45896426D02*
X30481461Y-45967855D01*
X30481461Y-45967855D02*
X30552889Y-46039283D01*
X30552889Y-46039283D02*
X30624318Y-45967855D01*
X30624318Y-45967855D02*
X30552889Y-45896426D01*
X30552889Y-45896426D02*
X30552889Y-46039283D01*
X31195747Y-47324998D02*
X31338604Y-47396426D01*
X31338604Y-47396426D02*
X31624318Y-47396426D01*
X31624318Y-47396426D02*
X31767175Y-47324998D01*
X31767175Y-47324998D02*
X31838604Y-47182140D01*
X31838604Y-47182140D02*
X31838604Y-47110712D01*
X31838604Y-47110712D02*
X31767175Y-46967855D01*
X31767175Y-46967855D02*
X31624318Y-46896426D01*
X31624318Y-46896426D02*
X31410033Y-46896426D01*
X31410033Y-46896426D02*
X31267175Y-46824998D01*
X31267175Y-46824998D02*
X31195747Y-46682140D01*
X31195747Y-46682140D02*
X31195747Y-46610712D01*
X31195747Y-46610712D02*
X31267175Y-46467855D01*
X31267175Y-46467855D02*
X31410033Y-46396426D01*
X31410033Y-46396426D02*
X31624318Y-46396426D01*
X31624318Y-46396426D02*
X31767175Y-46467855D01*
X32267176Y-46396426D02*
X32838604Y-46396426D01*
X32481461Y-45896426D02*
X32481461Y-47182140D01*
X32481461Y-47182140D02*
X32552890Y-47324998D01*
X32552890Y-47324998D02*
X32695747Y-47396426D01*
X32695747Y-47396426D02*
X32838604Y-47396426D01*
X33981462Y-47396426D02*
X33981462Y-46610712D01*
X33981462Y-46610712D02*
X33910033Y-46467855D01*
X33910033Y-46467855D02*
X33767176Y-46396426D01*
X33767176Y-46396426D02*
X33481462Y-46396426D01*
X33481462Y-46396426D02*
X33338604Y-46467855D01*
X33981462Y-47324998D02*
X33838604Y-47396426D01*
X33838604Y-47396426D02*
X33481462Y-47396426D01*
X33481462Y-47396426D02*
X33338604Y-47324998D01*
X33338604Y-47324998D02*
X33267176Y-47182140D01*
X33267176Y-47182140D02*
X33267176Y-47039283D01*
X33267176Y-47039283D02*
X33338604Y-46896426D01*
X33338604Y-46896426D02*
X33481462Y-46824998D01*
X33481462Y-46824998D02*
X33838604Y-46824998D01*
X33838604Y-46824998D02*
X33981462Y-46753569D01*
X34695747Y-46396426D02*
X34695747Y-47396426D01*
X34695747Y-46539283D02*
X34767176Y-46467855D01*
X34767176Y-46467855D02*
X34910033Y-46396426D01*
X34910033Y-46396426D02*
X35124319Y-46396426D01*
X35124319Y-46396426D02*
X35267176Y-46467855D01*
X35267176Y-46467855D02*
X35338605Y-46610712D01*
X35338605Y-46610712D02*
X35338605Y-47396426D01*
X36695748Y-47324998D02*
X36552890Y-47396426D01*
X36552890Y-47396426D02*
X36267176Y-47396426D01*
X36267176Y-47396426D02*
X36124319Y-47324998D01*
X36124319Y-47324998D02*
X36052890Y-47253569D01*
X36052890Y-47253569D02*
X35981462Y-47110712D01*
X35981462Y-47110712D02*
X35981462Y-46682140D01*
X35981462Y-46682140D02*
X36052890Y-46539283D01*
X36052890Y-46539283D02*
X36124319Y-46467855D01*
X36124319Y-46467855D02*
X36267176Y-46396426D01*
X36267176Y-46396426D02*
X36552890Y-46396426D01*
X36552890Y-46396426D02*
X36695748Y-46467855D01*
X37910033Y-47324998D02*
X37767176Y-47396426D01*
X37767176Y-47396426D02*
X37481462Y-47396426D01*
X37481462Y-47396426D02*
X37338604Y-47324998D01*
X37338604Y-47324998D02*
X37267176Y-47182140D01*
X37267176Y-47182140D02*
X37267176Y-46610712D01*
X37267176Y-46610712D02*
X37338604Y-46467855D01*
X37338604Y-46467855D02*
X37481462Y-46396426D01*
X37481462Y-46396426D02*
X37767176Y-46396426D01*
X37767176Y-46396426D02*
X37910033Y-46467855D01*
X37910033Y-46467855D02*
X37981462Y-46610712D01*
X37981462Y-46610712D02*
X37981462Y-46753569D01*
X37981462Y-46753569D02*
X37267176Y-46896426D01*
X31624318Y-48326426D02*
X31767175Y-48326426D01*
X31767175Y-48326426D02*
X31910032Y-48397855D01*
X31910032Y-48397855D02*
X31981461Y-48469283D01*
X31981461Y-48469283D02*
X32052889Y-48612140D01*
X32052889Y-48612140D02*
X32124318Y-48897855D01*
X32124318Y-48897855D02*
X32124318Y-49254998D01*
X32124318Y-49254998D02*
X32052889Y-49540712D01*
X32052889Y-49540712D02*
X31981461Y-49683569D01*
X31981461Y-49683569D02*
X31910032Y-49754998D01*
X31910032Y-49754998D02*
X31767175Y-49826426D01*
X31767175Y-49826426D02*
X31624318Y-49826426D01*
X31624318Y-49826426D02*
X31481461Y-49754998D01*
X31481461Y-49754998D02*
X31410032Y-49683569D01*
X31410032Y-49683569D02*
X31338603Y-49540712D01*
X31338603Y-49540712D02*
X31267175Y-49254998D01*
X31267175Y-49254998D02*
X31267175Y-48897855D01*
X31267175Y-48897855D02*
X31338603Y-48612140D01*
X31338603Y-48612140D02*
X31410032Y-48469283D01*
X31410032Y-48469283D02*
X31481461Y-48397855D01*
X31481461Y-48397855D02*
X31624318Y-48326426D01*
X34552889Y-49754998D02*
X34410031Y-49826426D01*
X34410031Y-49826426D02*
X34124317Y-49826426D01*
X34124317Y-49826426D02*
X33981460Y-49754998D01*
X33981460Y-49754998D02*
X33910031Y-49683569D01*
X33910031Y-49683569D02*
X33838603Y-49540712D01*
X33838603Y-49540712D02*
X33838603Y-49112140D01*
X33838603Y-49112140D02*
X33910031Y-48969283D01*
X33910031Y-48969283D02*
X33981460Y-48897855D01*
X33981460Y-48897855D02*
X34124317Y-48826426D01*
X34124317Y-48826426D02*
X34410031Y-48826426D01*
X34410031Y-48826426D02*
X34552889Y-48897855D01*
X35195745Y-49826426D02*
X35195745Y-48826426D01*
X35195745Y-48969283D02*
X35267174Y-48897855D01*
X35267174Y-48897855D02*
X35410031Y-48826426D01*
X35410031Y-48826426D02*
X35624317Y-48826426D01*
X35624317Y-48826426D02*
X35767174Y-48897855D01*
X35767174Y-48897855D02*
X35838603Y-49040712D01*
X35838603Y-49040712D02*
X35838603Y-49826426D01*
X35838603Y-49040712D02*
X35910031Y-48897855D01*
X35910031Y-48897855D02*
X36052888Y-48826426D01*
X36052888Y-48826426D02*
X36267174Y-48826426D01*
X36267174Y-48826426D02*
X36410031Y-48897855D01*
X36410031Y-48897855D02*
X36481460Y-49040712D01*
X36481460Y-49040712D02*
X36481460Y-49826426D01*
G36*
X23038392Y-53494066D02*
G01*
X22692051Y-53494066D01*
X22801575Y-53001209D01*
X23147916Y-53001209D01*
X23038392Y-53494066D01*
G37*
G36*
X26054127Y-53130704D02*
G01*
X26108344Y-53184922D01*
X26166412Y-53301057D01*
X26166412Y-53622790D01*
X26108343Y-53738924D01*
X26054127Y-53793142D01*
X25937993Y-53851209D01*
X25687689Y-53851209D01*
X25571552Y-53793141D01*
X25517337Y-53738926D01*
X25459269Y-53622790D01*
X25459269Y-53301058D01*
X25517336Y-53184921D01*
X25571552Y-53130706D01*
X25687688Y-53072638D01*
X25937992Y-53072638D01*
X26054127Y-53130704D01*
G37*
G36*
X28469983Y-54549067D02*
G01*
X21730698Y-54549067D01*
X21730698Y-53580190D01*
X22235471Y-53580190D01*
X22253767Y-53620254D01*
X22290819Y-53644066D01*
X22505059Y-53644066D01*
X22380145Y-54206178D01*
X22382339Y-54238912D01*
X22408576Y-54274288D01*
X22449773Y-54289864D01*
X22492852Y-54280695D01*
X22524135Y-54249690D01*
X22658718Y-53644066D01*
X23005059Y-53644066D01*
X22880145Y-54206178D01*
X22882339Y-54238912D01*
X22908576Y-54274288D01*
X22949773Y-54289864D01*
X22992852Y-54280695D01*
X23024135Y-54249690D01*
X23158718Y-53644066D01*
X23395051Y-53644066D01*
X23426529Y-53634823D01*
X23455371Y-53601537D01*
X23461639Y-53557942D01*
X23443343Y-53517878D01*
X23406291Y-53494066D01*
X23192051Y-53494066D01*
X23301575Y-53001209D01*
X23537908Y-53001209D01*
X23569386Y-52991966D01*
X23598228Y-52958680D01*
X23604496Y-52915085D01*
X23586200Y-52875021D01*
X23558993Y-52857536D01*
X23877581Y-52857536D01*
X23891471Y-52899332D01*
X23925753Y-52926984D01*
X23969542Y-52931712D01*
X24123685Y-52854639D01*
X24136016Y-52851957D01*
X24150635Y-52837337D01*
X24165761Y-52823268D01*
X24166123Y-52821849D01*
X24284415Y-52703557D01*
X24291600Y-52700421D01*
X24299696Y-52688276D01*
X24302069Y-52685904D01*
X24305648Y-52679347D01*
X24309269Y-52673918D01*
X24309269Y-53851209D01*
X23944916Y-53851209D01*
X23913438Y-53860452D01*
X23884596Y-53893738D01*
X23878328Y-53937333D01*
X23896624Y-53977397D01*
X23933676Y-54001209D01*
X24378909Y-54001209D01*
X24395393Y-54003579D01*
X24400583Y-54001209D01*
X24823623Y-54001209D01*
X24855101Y-53991966D01*
X24883943Y-53958680D01*
X24890211Y-53915085D01*
X24871915Y-53875021D01*
X24834863Y-53851209D01*
X24459269Y-53851209D01*
X24459269Y-53291743D01*
X25306555Y-53291743D01*
X25309269Y-53298287D01*
X25309269Y-53636454D01*
X25307338Y-53654339D01*
X25314194Y-53668052D01*
X25318512Y-53682755D01*
X25323865Y-53687393D01*
X25384409Y-53808482D01*
X25387092Y-53820813D01*
X25401711Y-53835432D01*
X25415781Y-53850558D01*
X25417199Y-53850920D01*
X25467444Y-53901165D01*
X25473888Y-53912015D01*
X25492387Y-53921264D01*
X25510511Y-53931161D01*
X25511971Y-53931056D01*
X25632831Y-53991485D01*
X25647961Y-54001209D01*
X25663292Y-54001209D01*
X25678375Y-54003923D01*
X25684919Y-54001209D01*
X25951660Y-54001209D01*
X25969541Y-54003140D01*
X25983255Y-53996282D01*
X25997957Y-53991966D01*
X26002595Y-53986612D01*
X26101154Y-53937333D01*
X26664041Y-53937333D01*
X26667568Y-53945056D01*
X26668174Y-53953525D01*
X26676537Y-53964697D01*
X26682337Y-53977397D01*
X26689480Y-53981987D01*
X26694568Y-53988784D01*
X26707644Y-53993661D01*
X26719389Y-54001209D01*
X26727880Y-54001209D01*
X26735835Y-54004176D01*
X26749474Y-54001209D01*
X27680765Y-54001209D01*
X27712243Y-53991966D01*
X27741085Y-53958680D01*
X27747353Y-53915085D01*
X27729057Y-53875021D01*
X27692005Y-53851209D01*
X26922477Y-53851209D01*
X27648732Y-53124953D01*
X27662741Y-53113675D01*
X27667589Y-53099130D01*
X27674933Y-53085681D01*
X27674427Y-53078615D01*
X27738161Y-52887417D01*
X27744983Y-52876803D01*
X27744983Y-52856124D01*
X27745729Y-52835484D01*
X27744983Y-52834225D01*
X27744983Y-52715958D01*
X27746913Y-52698079D01*
X27740058Y-52684369D01*
X27735740Y-52669663D01*
X27730384Y-52665022D01*
X27669841Y-52543935D01*
X27667159Y-52531605D01*
X27652534Y-52516980D01*
X27638469Y-52501860D01*
X27637051Y-52501497D01*
X27586807Y-52451253D01*
X27580364Y-52440404D01*
X27561863Y-52431153D01*
X27543741Y-52421258D01*
X27542280Y-52421362D01*
X27421419Y-52360932D01*
X27406290Y-52351209D01*
X27390960Y-52351209D01*
X27375877Y-52348495D01*
X27369333Y-52351209D01*
X27031166Y-52351209D01*
X27013282Y-52349278D01*
X26999568Y-52356134D01*
X26984866Y-52360452D01*
X26980227Y-52365805D01*
X26859137Y-52426350D01*
X26846807Y-52429033D01*
X26832187Y-52443652D01*
X26817062Y-52457722D01*
X26816699Y-52459140D01*
X26752183Y-52523657D01*
X26736460Y-52552451D01*
X26739603Y-52596382D01*
X26765997Y-52631641D01*
X26807264Y-52647033D01*
X26850301Y-52637671D01*
X26928694Y-52559277D01*
X27044831Y-52501209D01*
X27366562Y-52501209D01*
X27482699Y-52559277D01*
X27536914Y-52613492D01*
X27594983Y-52729628D01*
X27594983Y-52842610D01*
X27533001Y-53028552D01*
X26701913Y-53859640D01*
X26699151Y-53860452D01*
X26686488Y-53875065D01*
X26680754Y-53880800D01*
X26679449Y-53883189D01*
X26670309Y-53893738D01*
X26669100Y-53902140D01*
X26665031Y-53909594D01*
X26666027Y-53923518D01*
X26664041Y-53937333D01*
X26101154Y-53937333D01*
X26123684Y-53926068D01*
X26136017Y-53923386D01*
X26150644Y-53908757D01*
X26165761Y-53894697D01*
X26166123Y-53893278D01*
X26216368Y-53843032D01*
X26227216Y-53836590D01*
X26236460Y-53818101D01*
X26246363Y-53799966D01*
X26246258Y-53798505D01*
X26306690Y-53677644D01*
X26316412Y-53662517D01*
X26316412Y-53647187D01*
X26319126Y-53632104D01*
X26316412Y-53625560D01*
X26316412Y-53287387D01*
X26318342Y-53269508D01*
X26311487Y-53255798D01*
X26307169Y-53241092D01*
X26301813Y-53236451D01*
X26241270Y-53115364D01*
X26238588Y-53103034D01*
X26223961Y-53088407D01*
X26209898Y-53073289D01*
X26208480Y-53072926D01*
X26158238Y-53022683D01*
X26151793Y-53011832D01*
X26133286Y-53002578D01*
X26115170Y-52992687D01*
X26113711Y-52992791D01*
X25992848Y-52932360D01*
X25977719Y-52922638D01*
X25962388Y-52922638D01*
X25947305Y-52919924D01*
X25940762Y-52922638D01*
X25674024Y-52922638D01*
X25656139Y-52920707D01*
X25642425Y-52927563D01*
X25627723Y-52931881D01*
X25623084Y-52937234D01*
X25501995Y-52997778D01*
X25489665Y-53000461D01*
X25475083Y-53015042D01*
X25525307Y-52814144D01*
X25656838Y-52616848D01*
X25714409Y-52559277D01*
X25830545Y-52501209D01*
X26109337Y-52501209D01*
X26140815Y-52491966D01*
X26169657Y-52458680D01*
X26175925Y-52415085D01*
X26157629Y-52375021D01*
X26120577Y-52351209D01*
X25816875Y-52351209D01*
X25798996Y-52349279D01*
X25785286Y-52356133D01*
X25770580Y-52360452D01*
X25765939Y-52365807D01*
X25644852Y-52426350D01*
X25632522Y-52429033D01*
X25617897Y-52443657D01*
X25602777Y-52457723D01*
X25602414Y-52459140D01*
X25555550Y-52506004D01*
X25548367Y-52509140D01*
X25540270Y-52521284D01*
X25537898Y-52523657D01*
X25534316Y-52530215D01*
X25398061Y-52734597D01*
X25388277Y-52743798D01*
X25383454Y-52763088D01*
X25377542Y-52782039D01*
X25378157Y-52784274D01*
X25314501Y-53038902D01*
X25309269Y-53047044D01*
X25309269Y-53059832D01*
X25308893Y-53061336D01*
X25309269Y-53070582D01*
X25309269Y-53276660D01*
X25306555Y-53291743D01*
X24459269Y-53291743D01*
X24459269Y-52437635D01*
X24462424Y-52427522D01*
X24459269Y-52416069D01*
X24459269Y-52415427D01*
X24456410Y-52405692D01*
X24450727Y-52385060D01*
X24450218Y-52384604D01*
X24450026Y-52383949D01*
X24433884Y-52369962D01*
X24417931Y-52355662D01*
X24417254Y-52355553D01*
X24416740Y-52355107D01*
X24395620Y-52352070D01*
X24374447Y-52348662D01*
X24373819Y-52348935D01*
X24373145Y-52348839D01*
X24353711Y-52357713D01*
X24334081Y-52366283D01*
X24333702Y-52366851D01*
X24333081Y-52367135D01*
X24321514Y-52385133D01*
X24183126Y-52592714D01*
X24054127Y-52721714D01*
X23912513Y-52792521D01*
X23888492Y-52814866D01*
X23877581Y-52857536D01*
X23558993Y-52857536D01*
X23549148Y-52851209D01*
X23334908Y-52851209D01*
X23459822Y-52289097D01*
X23457628Y-52256363D01*
X23431391Y-52220987D01*
X23390194Y-52205411D01*
X23347115Y-52214581D01*
X23315832Y-52245585D01*
X23181249Y-52851209D01*
X22834908Y-52851209D01*
X22959822Y-52289097D01*
X22957628Y-52256363D01*
X22931391Y-52220987D01*
X22890194Y-52205411D01*
X22847115Y-52214581D01*
X22815832Y-52245585D01*
X22681249Y-52851209D01*
X22444916Y-52851209D01*
X22413438Y-52860452D01*
X22384596Y-52893738D01*
X22378328Y-52937333D01*
X22396624Y-52977397D01*
X22433676Y-53001209D01*
X22647916Y-53001209D01*
X22538392Y-53494066D01*
X22302059Y-53494066D01*
X22270581Y-53503309D01*
X22241739Y-53536595D01*
X22235471Y-53580190D01*
X21730698Y-53580190D01*
X21730698Y-51795495D01*
X28469983Y-51795495D01*
X28469983Y-54549067D01*
G37*
M02*
